<svg width="1322" height="160" viewBox="0 0 1322 160" version="1.1" xmlns="http://www.w3.org/2000/svg" xmlns:xlink="http://www.w3.org/1999/xlink">
<title>Desktop Header Menu</title>
<desc>Created using Figma</desc>
<g id="Canvas" transform="matrix(2 0 0 2 -5010 -1854)">
<g id="Desktop Header Menu">
<g id="Rectangle">
<use xlink:href="#path0_fill" transform="translate(2505 927)" fill="url(#paint0_radial)"/>
</g>
<g id="Group 2">
<g id="HH Logo">
<g id="Squircle">
<use xlink:href="#path1_fill" transform="translate(2553 943)" fill="#FFFFF2"/>
</g>
<g id="Squircle">
<use xlink:href="#path1_fill" transform="translate(2553 943)" fill="url(#paint2_radial)"/>
</g>
<g id="H">
<use xlink:href="#path2_fill" transform="translate(2558.44 953.875)" fill="#471D1D"/>
</g>
<g id="H">
<use xlink:href="#path3_fill" transform="translate(2574.19 964.375)" fill="#471D1D"/>
</g>
</g>
<g id="Group">
<g id="Menu Item">
<g id="Our Story">
<use xlink:href="#path4_fill" transform="translate(2633 954)" fill="#FFFFEF"/>
</g>
</g>
<g id="Menu Item">
<g id="Our Story">
<use xlink:href="#path5_fill" transform="translate(2775 954)" fill="#FFFFEF"/>
</g>
</g>
<g id="Menu Item">
<g id="Our Story">
<use xlink:href="#path6_fill" transform="translate(2901 954)" fill="#FFFFEF"/>
</g>
</g>
<g id="Menu Item">
<g id="Our Story">
<use xlink:href="#path7_fill" transform="translate(3018 954)" fill="#FFFFEF"/>
</g>
</g>
</g>
</g>
</g>
</g>
<defs>
<radialGradient id="paint0_radial" cx="0.5" cy="0.5" r="0.5" gradientUnits="userSpaceOnUse" gradientTransform="matrix(1322 160 -1322 160 0 -160)">
<stop offset="0" stop-color="#440F0F"/>
<stop offset="1" stop-color="#430E0E"/>
</radialGradient>
<radialGradient id="paint2_radial" cx="0.5" cy="0.5" r="0.5" gradientUnits="userSpaceOnUse" gradientTransform="matrix(96 96 -96 96 0 -96)">
<stop offset="0" stop-color="#FFFFF2"/>
<stop offset="1" stop-color="#FFFFCC"/>
</radialGradient>
<path id="path0_fill" fill-rule="evenodd" d="M 0 0L 661 0L 661 80L 0 80L 0 0Z"/>
<path id="path1_fill" fill-rule="evenodd" d="M 24 48C 40.2544 48 48 40.2544 48 24C 48 7.74562 39.1294 0 24 0C 8.87062 1.85281e-15 9.95293e-16 7.74562 0 24C 0 40.2544 7.74562 48 24 48Z"/>
<path id="path2_fill" fill-rule="evenodd" d="M 6.54732 7.49682C 7.31614 7.57141 8.58095 7.60871 10.3418 7.60871C 12.8218 7.60871 14.4669 7.59628 15.2771 7.57141C 16.0211 4.84453 16.3931 3.02526 16.3931 2.11353C 16.3931 1.68253 16.2484 1.31163 15.9591 1.00082C 15.6698 0.690004 15.1903 0.534599 14.5207 0.534599C 14.0991 0.534599 13.8883 0.443428 13.8883 0.261083C 13.8883 0.103604 14.004 0.0248651 14.2355 0.0248651C 14.3429 0.0248651 14.4711 0.0290092 14.6199 0.0372976C 15.7772 0.111893 17.3603 0.14919 19.3692 0.14919L 21.378 0.111893C 21.626 0.111893 21.75 0.190631 21.75 0.348111C 21.75 0.505591 21.6343 0.592618 21.4028 0.609194C 20.7332 0.667213 20.2475 0.758384 19.9458 0.88271C 19.644 1.00704 19.3754 1.24947 19.1398 1.61001C 18.9041 1.97056 18.7305 2.3456 18.6189 2.73516C 18.5073 3.12471 18.125 4.68084 17.4719 7.40358C 16.8188 10.1263 16.4324 11.8192 16.3125 12.4823C 16.1926 13.1453 16.1327 13.6841 16.1327 14.0985C 16.1327 14.4632 16.2774 14.7926 16.5667 15.0869C 16.856 15.3811 17.5684 15.5407 17.957 15.5655C 18.3869 15.5987 18.5357 15.6915 18.5357 15.8324C 18.5357 16.023 18.4489 16.1126 18.143 16.1126L 15.3639 16.038L 11.433 16.125C 11.185 16.125 11.061 16.0421 11.061 15.8763C 11.061 15.7437 11.1643 15.6691 11.371 15.6526C 12.206 15.578 12.7991 15.3542 13.1504 14.9812C 13.5018 14.6082 13.9007 13.4603 14.3471 11.5374L 15.0911 8.26764C 13.9668 8.21791 12.4829 8.19304 10.6394 8.19304L 6.37372 8.20547C 6.26625 8.80224 6.06785 9.67665 5.77851 10.8287C 5.4313 12.1963 5.2577 13.1412 5.2577 13.6634C 5.2577 14.8818 5.9397 15.5324 7.30373 15.6153C 7.62614 15.6318 7.78734 15.7106 7.78734 15.8515C 7.78734 15.9924 7.70468 16.0628 7.53934 16.0628L 4.20368 16.0255L 0.384407 16.0753C 0.128134 16.0753 0 15.9882 0 15.8142C 0 15.6899 0.219069 15.5863 0.657212 15.5034C 1.21109 15.3956 1.61616 15.2423 1.87243 15.0434C 2.12871 14.8444 2.38291 14.4777 2.63505 13.9431C 2.88719 13.4085 3.21372 12.3331 3.61467 10.7168C 4.01561 9.10061 4.40828 7.42016 4.79269 5.67545C 5.1771 3.93075 5.3693 2.82219 5.3693 2.34975C 5.3693 1.67839 5.2267 1.21217 4.94149 0.951089C 4.65628 0.690004 4.17475 0.530455 3.49686 0.472436C 3.28193 0.45586 3.17446 0.381265 3.17446 0.248651C 3.17446 0.0828827 3.29019 0 3.52166 0L 7.62614 0.0497301L 10.0566 0.0124325C 10.4286 0.0124325 10.6146 0.107748 10.6146 0.298381C 10.6146 0.45586 10.4989 0.534599 10.2674 0.534599C 9.78791 0.534599 9.35391 0.617482 8.96537 0.78325C 8.57682 0.949018 8.28542 1.18523 8.09115 1.4919C 7.89688 1.79858 7.65921 2.55695 7.37814 3.76706L 6.54732 7.49682Z"/>
<path id="path3_fill" fill-rule="evenodd" d="M 6.54732 7.49682C 7.31614 7.57141 8.58095 7.60871 10.3418 7.60871C 12.8218 7.60871 14.4669 7.59628 15.2771 7.57141C 16.0211 4.84453 16.3931 3.02526 16.3931 2.11353C 16.3931 1.68253 16.2484 1.31163 15.9591 1.00082C 15.6698 0.690004 15.1903 0.534599 14.5207 0.534599C 14.0991 0.534599 13.8883 0.443428 13.8883 0.261083C 13.8883 0.103604 14.004 0.0248651 14.2355 0.0248651C 14.3429 0.0248651 14.4711 0.0290092 14.6199 0.0372976C 15.7772 0.111893 17.3603 0.14919 19.3692 0.14919L 21.378 0.111893C 21.626 0.111893 21.75 0.190631 21.75 0.348111C 21.75 0.505591 21.6343 0.592618 21.4028 0.609194C 20.7332 0.667213 20.2475 0.758384 19.9458 0.88271C 19.644 1.00704 19.3754 1.24947 19.1398 1.61001C 18.9041 1.97056 18.7305 2.3456 18.6189 2.73516C 18.5073 3.12471 18.125 4.68084 17.4719 7.40358C 16.8188 10.1263 16.4324 11.8192 16.3125 12.4823C 16.1926 13.1453 16.1327 13.6841 16.1327 14.0985C 16.1327 14.4632 16.2774 14.7926 16.5667 15.0869C 16.856 15.3811 17.195 15.5407 17.5835 15.5655C 18.0134 15.5987 18.2283 15.6857 18.2283 15.8266C 18.2283 16.0173 18.0754 16.1126 17.7695 16.1126L 15.3639 16.038L 11.433 16.125C 11.185 16.125 11.061 16.0421 11.061 15.8763C 11.061 15.7437 11.1643 15.6691 11.371 15.6526C 12.206 15.578 12.7991 15.3542 13.1504 14.9812C 13.5018 14.6082 13.9007 13.4603 14.3471 11.5374L 15.0911 8.26764C 13.9668 8.21791 12.4829 8.19304 10.6394 8.19304L 6.37372 8.20547C 6.26625 8.80224 6.06785 9.67665 5.77851 10.8287C 5.4313 12.1963 5.2577 13.1412 5.2577 13.6634C 5.2577 14.8818 5.9397 15.5324 7.30373 15.6153C 7.62614 15.6318 7.78734 15.7106 7.78734 15.8515C 7.78734 15.9924 7.70468 16.0628 7.53934 16.0628L 4.20368 16.0255L 0.384407 16.0753C 0.128134 16.0753 0 15.9882 0 15.8142C 0 15.6899 0.219069 15.5863 0.657212 15.5034C 1.21109 15.3956 1.61616 15.2423 1.87243 15.0434C 2.12871 14.8444 2.38291 14.4777 2.63505 13.9431C 2.88719 13.4085 3.21372 12.3331 3.61467 10.7168C 4.01561 9.10061 4.40828 7.42016 4.79269 5.67545C 5.1771 3.93075 5.3693 2.82219 5.3693 2.34975C 5.3693 1.67839 5.2267 1.21217 4.94149 0.951089C 4.65628 0.690004 3.80128 0.530455 3.1234 0.472436C 2.90846 0.45586 2.80099 0.381265 2.80099 0.248651C 2.80099 0.0828827 2.91673 0 3.1482 0L 7.62614 0.0497301L 10.0566 0.0124325C 10.4286 0.0124325 10.6146 0.107748 10.6146 0.298381C 10.6146 0.45586 10.4989 0.534599 10.2674 0.534599C 9.78791 0.534599 9.35391 0.617482 8.96537 0.78325C 8.57682 0.949018 8.28542 1.18523 8.09115 1.4919C 7.89688 1.79858 7.65921 2.55695 7.37814 3.76706L 6.54732 7.49682Z"/>
<path id="path4_fill" d="M 0.792 13.2C 0.792 12.08 1 11.032 1.416 10.056C 1.848 9.08 2.432 8.224 3.168 7.488C 3.904 6.752 4.76 6.176 5.736 5.76C 6.728 5.328 7.784 5.112 8.904 5.112C 10.056 5.112 11.128 5.312 12.12 5.712C 13.112 6.112 13.968 6.672 14.688 7.392C 15.424 8.112 16 8.968 16.416 9.96C 16.832 10.952 17.04 12.032 17.04 13.2C 17.04 14.32 16.824 15.376 16.392 16.368C 15.976 17.344 15.4 18.2 14.664 18.936C 13.928 19.656 13.064 20.232 12.072 20.664C 11.08 21.08 10.024 21.288 8.904 21.288C 7.752 21.288 6.68 21.088 5.688 20.688C 4.696 20.288 3.84 19.728 3.12 19.008C 2.4 18.288 1.832 17.44 1.416 16.464C 1 15.472 0.792 14.384 0.792 13.2ZM 9.264 20.04C 9.936 20.04 10.544 19.896 11.088 19.608C 11.632 19.304 12.096 18.896 12.48 18.384C 12.88 17.872 13.184 17.272 13.392 16.584C 13.616 15.896 13.728 15.16 13.728 14.376C 13.728 13.24 13.616 12.184 13.392 11.208C 13.184 10.232 12.856 9.392 12.408 8.688C 11.976 7.968 11.424 7.408 10.752 7.008C 10.096 6.592 9.328 6.384 8.448 6.384C 7.888 6.384 7.344 6.512 6.816 6.768C 6.288 7.008 5.824 7.368 5.424 7.848C 5.024 8.312 4.704 8.88 4.464 9.552C 4.224 10.224 4.104 10.984 4.104 11.832C 4.104 13.016 4.216 14.112 4.44 15.12C 4.68 16.128 5.016 17 5.448 17.736C 5.896 18.456 6.44 19.024 7.08 19.44C 7.72 19.84 8.448 20.04 9.264 20.04ZM 20.0897 12.816C 20.0897 12.432 20.0257 12.152 19.8977 11.976C 19.7857 11.8 19.4577 11.68 18.9137 11.616C 18.6897 11.568 18.5777 11.456 18.5777 11.28C 18.5777 11.232 18.5777 11.168 18.5777 11.088C 18.5777 11.008 18.5937 10.928 18.6257 10.848C 18.7217 10.848 18.8577 10.848 19.0337 10.848C 19.2097 10.832 19.3937 10.824 19.5857 10.824C 19.7777 10.808 19.9697 10.792 20.1617 10.776C 20.3697 10.76 20.5537 10.736 20.7137 10.704C 21.0817 10.656 21.4337 10.6 21.7697 10.536C 22.1057 10.456 22.3377 10.416 22.4657 10.416C 22.6097 10.416 22.6977 10.448 22.7297 10.512C 22.7777 10.576 22.8017 10.664 22.8017 10.776L 22.8017 16.92C 22.8017 17.848 22.9137 18.496 23.1377 18.864C 23.3777 19.216 23.7537 19.392 24.2657 19.392C 24.9857 19.392 25.6017 19.152 26.1137 18.672C 26.6257 18.192 26.8817 17.464 26.8817 16.488L 26.8817 12.816C 26.8817 12.624 26.8657 12.464 26.8337 12.336C 26.8177 12.192 26.7697 12.072 26.6897 11.976C 26.6097 11.88 26.4897 11.808 26.3297 11.76C 26.1857 11.696 25.9777 11.648 25.7057 11.616C 25.6097 11.584 25.5217 11.552 25.4417 11.52C 25.3777 11.488 25.3457 11.408 25.3457 11.28C 25.3457 11.232 25.3457 11.168 25.3457 11.088C 25.3617 11.008 25.3777 10.928 25.3937 10.848C 25.5057 10.848 25.6417 10.848 25.8017 10.848C 25.9777 10.832 26.1617 10.824 26.3537 10.824C 26.5617 10.808 26.7617 10.792 26.9537 10.776C 27.1617 10.76 27.3457 10.736 27.5057 10.704C 27.8577 10.656 28.2017 10.6 28.5377 10.536C 28.8897 10.456 29.1297 10.416 29.2577 10.416C 29.4817 10.416 29.5937 10.536 29.5937 10.776L 29.5937 18.768C 29.5937 18.96 29.6017 19.128 29.6177 19.272C 29.6497 19.4 29.7057 19.512 29.7857 19.608C 29.8657 19.704 29.9857 19.784 30.1457 19.848C 30.3057 19.896 30.5217 19.936 30.7937 19.968C 31.0017 19.984 31.1057 20.088 31.1057 20.28C 31.1057 20.36 31.1057 20.44 31.1057 20.52C 31.1057 20.6 31.0897 20.664 31.0577 20.712C 30.8497 20.712 30.5217 20.728 30.0737 20.76C 29.6417 20.776 29.2737 20.808 28.9697 20.856C 28.6177 20.904 28.2657 20.96 27.9137 21.024C 27.5777 21.104 27.3457 21.144 27.2177 21.144C 27.0737 21.144 26.9777 21.112 26.9297 21.048C 26.8977 21 26.8817 20.912 26.8817 20.784L 26.8817 19.056C 26.3697 19.728 25.8017 20.272 25.1777 20.688C 24.5537 21.088 23.9057 21.288 23.2337 21.288C 22.2577 21.288 21.4897 21.024 20.9297 20.496C 20.3697 19.952 20.0897 19.144 20.0897 18.072L 20.0897 12.816ZM 40.1578 10.44C 40.6218 10.44 40.9658 10.56 41.1898 10.8C 41.4298 11.04 41.5498 11.344 41.5498 11.712C 41.5498 11.824 41.5258 11.92 41.4778 12C 41.4458 12.08 41.3578 12.168 41.2138 12.264C 41.0858 12.36 40.9018 12.472 40.6618 12.6C 40.4218 12.712 40.1098 12.856 39.7258 13.032C 39.4698 12.776 39.2298 12.608 39.0058 12.528C 38.7978 12.432 38.5898 12.384 38.3818 12.384C 38.1898 12.384 37.9978 12.416 37.8058 12.48C 37.6298 12.544 37.4698 12.672 37.3258 12.864C 37.1818 13.04 37.0618 13.28 36.9658 13.584C 36.8858 13.888 36.8458 14.28 36.8458 14.76L 36.8458 19.224C 36.8458 19.544 36.9738 19.784 37.2298 19.944C 37.4858 20.088 37.9898 20.224 38.7418 20.352C 38.9178 20.384 39.0058 20.488 39.0058 20.664C 39.0058 20.888 38.9898 21.04 38.9578 21.12C 38.7498 21.104 38.4938 21.088 38.1898 21.072C 37.8858 21.072 37.5658 21.064 37.2298 21.048C 36.8938 21.032 36.5578 21.016 36.2218 21C 35.9018 21 35.6138 21 35.3578 21C 34.7498 21 34.2298 21.008 33.7978 21.024C 33.3658 21.056 32.9578 21.088 32.5738 21.12C 32.5418 21.04 32.5258 20.888 32.5258 20.664C 32.5258 20.488 32.6138 20.384 32.7898 20.352C 33.3018 20.256 33.6538 20.152 33.8458 20.04C 34.0378 19.928 34.1338 19.752 34.1338 19.512L 34.1338 13.056C 34.1338 12.688 34.0618 12.392 33.9178 12.168C 33.7898 11.944 33.4138 11.792 32.7898 11.712C 32.5658 11.68 32.4538 11.56 32.4538 11.352C 32.4538 11.304 32.4538 11.24 32.4538 11.16C 32.4538 11.08 32.4698 11.016 32.5018 10.968C 32.5978 10.968 32.7338 10.968 32.9098 10.968C 33.0858 10.952 33.2778 10.944 33.4858 10.944C 33.6938 10.928 33.9018 10.912 34.1098 10.896C 34.3178 10.88 34.5018 10.856 34.6618 10.824C 35.0138 10.776 35.3738 10.72 35.7418 10.656C 36.1258 10.576 36.3818 10.536 36.5098 10.536C 36.7338 10.536 36.8458 10.656 36.8458 10.896L 36.8458 12.192C 37.4058 11.584 37.9418 11.144 38.4538 10.872C 38.9658 10.584 39.5338 10.44 40.1578 10.44ZM 57.8257 9.288C 57.6818 9.336 57.5297 9.36 57.3697 9.36C 57.1457 9.36 56.9857 9.32 56.8897 9.24C 56.7938 9.144 56.7298 9.048 56.6977 8.952C 56.3297 8.04 55.8498 7.384 55.2578 6.984C 54.6818 6.584 53.9057 6.384 52.9297 6.384C 52.1617 6.384 51.5057 6.576 50.9618 6.96C 50.4338 7.328 50.1698 7.896 50.1698 8.664C 50.1698 9.256 50.3698 9.736 50.7698 10.104C 51.1857 10.456 51.6978 10.768 52.3058 11.04C 52.9298 11.312 53.5938 11.576 54.2978 11.832C 55.0177 12.088 55.6817 12.408 56.2897 12.792C 56.9138 13.176 57.4258 13.664 57.8257 14.256C 58.2417 14.848 58.4498 15.608 58.4498 16.536C 58.4498 17.144 58.3457 17.736 58.1377 18.312C 57.9297 18.888 57.6018 19.4 57.1538 19.848C 56.7058 20.28 56.1378 20.632 55.4498 20.904C 54.7617 21.16 53.9378 21.288 52.9778 21.288C 51.9218 21.288 50.9778 21.176 50.1457 20.952C 49.3137 20.712 48.6257 20.456 48.0817 20.184C 48.0337 19.496 47.9537 18.824 47.8417 18.168C 47.7458 17.496 47.6337 16.848 47.5057 16.224C 47.6657 16.16 47.8498 16.128 48.0577 16.128C 48.2497 16.128 48.3937 16.168 48.4898 16.248C 48.5858 16.312 48.6658 16.432 48.7298 16.608C 48.9378 17.216 49.1698 17.744 49.4258 18.192C 49.6818 18.624 49.9778 18.984 50.3137 19.272C 50.6497 19.544 51.0337 19.744 51.4657 19.872C 51.9138 20 52.4258 20.064 53.0018 20.064C 53.4978 20.064 53.9218 20 54.2737 19.872C 54.6257 19.728 54.9138 19.544 55.1377 19.32C 55.3618 19.096 55.5297 18.832 55.6418 18.528C 55.7538 18.224 55.8098 17.912 55.8098 17.592C 55.8098 16.904 55.6097 16.368 55.2097 15.984C 54.8257 15.584 54.3377 15.256 53.7458 15C 53.1698 14.728 52.5378 14.48 51.8498 14.256C 51.1778 14.016 50.5457 13.72 49.9537 13.368C 49.3777 13 48.8897 12.536 48.4898 11.976C 48.1058 11.4 47.9138 10.632 47.9138 9.672C 47.9138 9.032 48.0258 8.44 48.2497 7.896C 48.4898 7.336 48.8338 6.856 49.2818 6.456C 49.7298 6.04 50.2657 5.712 50.8897 5.472C 51.5297 5.232 52.2578 5.112 53.0738 5.112C 53.7458 5.112 54.4177 5.184 55.0897 5.328C 55.7777 5.472 56.5538 5.712 57.4177 6.048C 57.4498 6.528 57.4978 7.072 57.5618 7.68C 57.6418 8.272 57.7297 8.808 57.8257 9.288ZM 66.2139 19.44C 66.3739 19.344 66.5099 19.296 66.6219 19.296C 66.7819 19.296 66.9499 19.464 67.1259 19.8C 66.4539 20.408 65.8619 20.808 65.3499 21C 64.8539 21.192 64.3259 21.288 63.7659 21.288C 63.4459 21.288 63.1339 21.248 62.8299 21.168C 62.5419 21.088 62.2779 20.944 62.0379 20.736C 61.7979 20.528 61.6059 20.248 61.4619 19.896C 61.3179 19.528 61.2459 19.064 61.2459 18.504L 61.2459 11.904L 59.8059 11.904L 59.8059 11.304C 59.8059 11.24 59.8219 11.16 59.8539 11.064C 59.8859 10.968 59.9819 10.92 60.1419 10.92C 60.5739 10.92 60.9739 10.8 61.3419 10.56C 61.7099 10.304 62.0059 9.928 62.2299 9.432C 62.4059 9.064 62.5979 8.768 62.8059 8.544C 63.0299 8.32 63.2459 8.208 63.4539 8.208L 63.9579 8.208L 63.9579 10.704L 66.7659 10.704C 66.7659 11.216 66.7259 11.544 66.6459 11.688C 66.5819 11.832 66.4539 11.904 66.2619 11.904L 63.9579 11.904L 63.9579 17.832C 63.9579 18.312 63.9739 18.696 64.0059 18.984C 64.0379 19.256 64.0859 19.464 64.1499 19.608C 64.2299 19.752 64.3259 19.848 64.4379 19.896C 64.5659 19.928 64.7099 19.944 64.8699 19.944C 65.0459 19.944 65.2539 19.904 65.4939 19.824C 65.7339 19.728 65.9739 19.6 66.2139 19.44ZM 68.0348 15.864C 68.0348 15.08 68.1707 14.36 68.4428 13.704C 68.7308 13.032 69.1228 12.456 69.6188 11.976C 70.1148 11.48 70.7067 11.096 71.3948 10.824C 72.0828 10.552 72.8347 10.416 73.6508 10.416C 74.4988 10.416 75.2668 10.552 75.9548 10.824C 76.6428 11.096 77.2348 11.48 77.7308 11.976C 78.2267 12.456 78.6028 13.032 78.8588 13.704C 79.1308 14.36 79.2668 15.08 79.2668 15.864C 79.2668 16.648 79.1227 17.376 78.8347 18.048C 78.5627 18.704 78.1707 19.272 77.6587 19.752C 77.1628 20.232 76.5708 20.608 75.8828 20.88C 75.1947 21.152 74.4428 21.288 73.6268 21.288C 72.7788 21.288 72.0108 21.152 71.3227 20.88C 70.6347 20.608 70.0427 20.232 69.5468 19.752C 69.0667 19.272 68.6908 18.704 68.4188 18.048C 68.1628 17.376 68.0348 16.648 68.0348 15.864ZM 71.0588 15.384C 71.0588 16.856 71.2987 18.032 71.7788 18.912C 72.2747 19.792 72.9787 20.232 73.8907 20.232C 74.7387 20.232 75.3387 19.896 75.6907 19.224C 76.0587 18.536 76.2428 17.576 76.2428 16.344C 76.2428 14.888 75.9947 13.712 75.4988 12.816C 75.0028 11.92 74.3068 11.472 73.4108 11.472C 72.5628 11.472 71.9547 11.824 71.5867 12.528C 71.2347 13.216 71.0588 14.168 71.0588 15.384ZM 88.4859 10.44C 88.9499 10.44 89.2939 10.56 89.5179 10.8C 89.7579 11.04 89.8779 11.344 89.8779 11.712C 89.8779 11.824 89.8539 11.92 89.8059 12C 89.7739 12.08 89.6859 12.168 89.5419 12.264C 89.4139 12.36 89.2299 12.472 88.9899 12.6C 88.7499 12.712 88.4379 12.856 88.0539 13.032C 87.7979 12.776 87.5579 12.608 87.3339 12.528C 87.1259 12.432 86.9179 12.384 86.7099 12.384C 86.5179 12.384 86.3259 12.416 86.1339 12.48C 85.9579 12.544 85.7979 12.672 85.6539 12.864C 85.5099 13.04 85.3899 13.28 85.2939 13.584C 85.2139 13.888 85.1739 14.28 85.1739 14.76L 85.1739 19.224C 85.1739 19.544 85.3019 19.784 85.5579 19.944C 85.8139 20.088 86.3179 20.224 87.0699 20.352C 87.2459 20.384 87.3339 20.488 87.3339 20.664C 87.3339 20.888 87.3179 21.04 87.2859 21.12C 87.0779 21.104 86.8219 21.088 86.5179 21.072C 86.2139 21.072 85.8939 21.064 85.5579 21.048C 85.2219 21.032 84.8859 21.016 84.5499 21C 84.2299 21 83.9419 21 83.6859 21C 83.0779 21 82.5579 21.008 82.1259 21.024C 81.6939 21.056 81.2859 21.088 80.9019 21.12C 80.8699 21.04 80.8539 20.888 80.8539 20.664C 80.8539 20.488 80.9419 20.384 81.1179 20.352C 81.6299 20.256 81.9819 20.152 82.1739 20.04C 82.3659 19.928 82.4619 19.752 82.4619 19.512L 82.4619 13.056C 82.4619 12.688 82.3899 12.392 82.2459 12.168C 82.1179 11.944 81.7419 11.792 81.1179 11.712C 80.8939 11.68 80.7819 11.56 80.7819 11.352C 80.7819 11.304 80.7819 11.24 80.7819 11.16C 80.7819 11.08 80.7979 11.016 80.8299 10.968C 80.9259 10.968 81.0619 10.968 81.2379 10.968C 81.4139 10.952 81.6059 10.944 81.8139 10.944C 82.0219 10.928 82.2299 10.912 82.4379 10.896C 82.6459 10.88 82.8299 10.856 82.9899 10.824C 83.3419 10.776 83.7019 10.72 84.0699 10.656C 84.4539 10.576 84.7099 10.536 84.8379 10.536C 85.0619 10.536 85.1739 10.656 85.1739 10.896L 85.1739 12.192C 85.7339 11.584 86.2699 11.144 86.7819 10.872C 87.2939 10.584 87.8619 10.44 88.4859 10.44ZM 96.6988 17.496C 97.0828 16.552 97.4028 15.768 97.6588 15.144C 97.9308 14.52 98.1468 14.008 98.3068 13.608C 98.4668 13.208 98.5788 12.896 98.6428 12.672C 98.7228 12.432 98.7628 12.232 98.7628 12.072C 98.7628 11.752 98.5068 11.528 97.9948 11.4C 97.8828 11.368 97.8028 11.336 97.7548 11.304C 97.7068 11.256 97.6828 11.168 97.6828 11.04C 97.6828 10.992 97.6908 10.936 97.7068 10.872C 97.7228 10.792 97.7388 10.712 97.7548 10.632C 98.3948 10.68 99.0908 10.704 99.8428 10.704C 100.515 10.704 101.131 10.68 101.691 10.632C 101.723 10.712 101.739 10.8 101.739 10.896C 101.755 10.992 101.763 11.056 101.763 11.088C 101.763 11.264 101.659 11.376 101.451 11.424C 101.227 11.472 101.043 11.52 100.899 11.568C 100.771 11.6 100.659 11.664 100.563 11.76C 100.467 11.84 100.379 11.952 100.299 12.096C 100.219 12.224 100.123 12.408 100.011 12.648L 94.9708 24.432C 94.6028 25.28 94.0828 25.88 93.4108 26.232C 92.7548 26.584 92.0428 26.76 91.2748 26.76C 91.1308 26.76 91.0268 26.72 90.9628 26.64C 90.8988 26.56 90.8668 26.472 90.8668 26.376C 90.8668 25.832 90.9628 25.36 91.1548 24.96C 91.3468 24.576 91.5708 24.384 91.8268 24.384C 91.9708 24.384 92.0988 24.4 92.2108 24.432C 92.3228 24.464 92.4828 24.48 92.6908 24.48C 93.1068 24.48 93.4188 24.392 93.6268 24.216C 93.8508 24.056 94.0428 23.792 94.2028 23.424L 95.2828 20.832L 91.6108 12.648C 91.4988 12.408 91.4028 12.224 91.3228 12.096C 91.2428 11.952 91.1548 11.84 91.0588 11.76C 90.9628 11.68 90.8508 11.624 90.7228 11.592C 90.5948 11.544 90.4268 11.496 90.2188 11.448C 90.0108 11.4 89.9068 11.264 89.9068 11.04C 89.9068 10.944 89.9308 10.808 89.9788 10.632C 90.3628 10.664 90.7708 10.688 91.2028 10.704C 91.6348 10.704 92.1628 10.704 92.7868 10.704C 93.3628 10.704 93.8588 10.704 94.2748 10.704C 94.6908 10.688 95.1068 10.664 95.5228 10.632C 95.5708 10.808 95.5948 10.944 95.5948 11.04C 95.5948 11.248 95.4908 11.368 95.2828 11.4C 94.8988 11.448 94.6508 11.52 94.5388 11.616C 94.4428 11.696 94.3948 11.8 94.3948 11.928C 94.3948 12.008 94.4348 12.176 94.5148 12.432C 94.5948 12.688 94.7708 13.12 95.0428 13.728L 96.6988 17.496Z"/>
<path id="path5_fill" d="M 11.232 9.288C 11.088 9.336 10.936 9.36 10.776 9.36C 10.552 9.36 10.392 9.32 10.296 9.24C 10.2 9.144 10.136 9.048 10.104 8.952C 9.736 8.04 9.256 7.384 8.664 6.984C 8.088 6.584 7.312 6.384 6.336 6.384C 5.568 6.384 4.912 6.576 4.368 6.96C 3.84 7.328 3.576 7.896 3.576 8.664C 3.576 9.256 3.776 9.736 4.176 10.104C 4.592 10.456 5.104 10.768 5.712 11.04C 6.336 11.312 7 11.576 7.704 11.832C 8.424 12.088 9.088 12.408 9.696 12.792C 10.32 13.176 10.832 13.664 11.232 14.256C 11.648 14.848 11.856 15.608 11.856 16.536C 11.856 17.144 11.752 17.736 11.544 18.312C 11.336 18.888 11.008 19.4 10.56 19.848C 10.112 20.28 9.544 20.632 8.856 20.904C 8.168 21.16 7.344 21.288 6.384 21.288C 5.328 21.288 4.384 21.176 3.552 20.952C 2.72 20.712 2.032 20.456 1.488 20.184C 1.44 19.496 1.36 18.824 1.248 18.168C 1.152 17.496 1.04 16.848 0.912 16.224C 1.072 16.16 1.256 16.128 1.464 16.128C 1.656 16.128 1.8 16.168 1.896 16.248C 1.992 16.312 2.072 16.432 2.136 16.608C 2.344 17.216 2.576 17.744 2.832 18.192C 3.088 18.624 3.384 18.984 3.72 19.272C 4.056 19.544 4.44 19.744 4.872 19.872C 5.32 20 5.832 20.064 6.408 20.064C 6.904 20.064 7.328 20 7.68 19.872C 8.032 19.728 8.32 19.544 8.544 19.32C 8.768 19.096 8.936 18.832 9.048 18.528C 9.16 18.224 9.216 17.912 9.216 17.592C 9.216 16.904 9.016 16.368 8.616 15.984C 8.232 15.584 7.744 15.256 7.152 15C 6.576 14.728 5.944 14.48 5.256 14.256C 4.584 14.016 3.952 13.72 3.36 13.368C 2.784 13 2.296 12.536 1.896 11.976C 1.512 11.4 1.32 10.632 1.32 9.672C 1.32 9.032 1.432 8.44 1.656 7.896C 1.896 7.336 2.24 6.856 2.688 6.456C 3.136 6.04 3.672 5.712 4.296 5.472C 4.936 5.232 5.664 5.112 6.48 5.112C 7.152 5.112 7.824 5.184 8.496 5.328C 9.184 5.472 9.96 5.712 10.824 6.048C 10.856 6.528 10.904 7.072 10.968 7.68C 11.048 8.272 11.136 8.808 11.232 9.288ZM 22.7557 18.792C 22.8997 18.68 23.0278 18.624 23.1397 18.624C 23.2198 18.624 23.3078 18.664 23.4038 18.744C 23.5158 18.808 23.6278 18.944 23.7398 19.152C 23.1158 19.888 22.3957 20.432 21.5798 20.784C 20.7797 21.12 19.8277 21.288 18.7237 21.288C 18.0998 21.288 17.4838 21.192 16.8758 21C 16.2838 20.792 15.7477 20.48 15.2677 20.064C 14.7877 19.632 14.3958 19.096 14.0918 18.456C 13.8038 17.816 13.6598 17.048 13.6598 16.152C 13.6598 15.272 13.8277 14.48 14.1638 13.776C 14.5158 13.056 14.9558 12.448 15.4838 11.952C 16.0117 11.456 16.5878 11.08 17.2118 10.824C 17.8358 10.552 18.4357 10.416 19.0117 10.416C 20.5637 10.416 21.7318 10.864 22.5158 11.76C 23.3158 12.656 23.7157 13.88 23.7157 15.432C 23.7157 15.544 23.6597 15.6 23.5478 15.6L 16.6597 15.888C 16.6597 17.136 16.9398 18.096 17.4997 18.768C 18.0597 19.424 18.8998 19.752 20.0198 19.752C 20.5158 19.752 21.0038 19.672 21.4838 19.512C 21.9638 19.352 22.3877 19.112 22.7557 18.792ZM 18.6517 11.472C 18.0278 11.472 17.5237 11.744 17.1397 12.288C 16.7718 12.816 16.5877 13.656 16.5877 14.808L 20.3317 14.64C 20.5718 14.624 20.6917 14.52 20.6917 14.328C 20.6917 14.024 20.6518 13.704 20.5718 13.368C 20.4917 13.032 20.3638 12.728 20.1878 12.456C 20.0278 12.168 19.8197 11.936 19.5637 11.76C 19.3077 11.568 19.0038 11.472 18.6517 11.472ZM 32.8453 10.44C 33.3093 10.44 33.6533 10.56 33.8773 10.8C 34.1173 11.04 34.2373 11.344 34.2373 11.712C 34.2373 11.824 34.2133 11.92 34.1653 12C 34.1333 12.08 34.0453 12.168 33.9013 12.264C 33.7733 12.36 33.5893 12.472 33.3493 12.6C 33.1093 12.712 32.7973 12.856 32.4133 13.032C 32.1573 12.776 31.9173 12.608 31.6933 12.528C 31.4853 12.432 31.2773 12.384 31.0693 12.384C 30.8773 12.384 30.6853 12.416 30.4933 12.48C 30.3173 12.544 30.1573 12.672 30.0133 12.864C 29.8693 13.04 29.7493 13.28 29.6533 13.584C 29.5733 13.888 29.5333 14.28 29.5333 14.76L 29.5333 19.224C 29.5333 19.544 29.6613 19.784 29.9173 19.944C 30.1733 20.088 30.6773 20.224 31.4293 20.352C 31.6053 20.384 31.6933 20.488 31.6933 20.664C 31.6933 20.888 31.6773 21.04 31.6453 21.12C 31.4373 21.104 31.1813 21.088 30.8773 21.072C 30.5733 21.072 30.2533 21.064 29.9173 21.048C 29.5813 21.032 29.2453 21.016 28.9093 21C 28.5893 21 28.3013 21 28.0453 21C 27.4373 21 26.9173 21.008 26.4853 21.024C 26.0533 21.056 25.6453 21.088 25.2613 21.12C 25.2293 21.04 25.2133 20.888 25.2133 20.664C 25.2133 20.488 25.3013 20.384 25.4773 20.352C 25.9893 20.256 26.3413 20.152 26.5333 20.04C 26.7253 19.928 26.8213 19.752 26.8213 19.512L 26.8213 13.056C 26.8213 12.688 26.7493 12.392 26.6053 12.168C 26.4773 11.944 26.1013 11.792 25.4773 11.712C 25.2533 11.68 25.1413 11.56 25.1413 11.352C 25.1413 11.304 25.1413 11.24 25.1413 11.16C 25.1413 11.08 25.1573 11.016 25.1893 10.968C 25.2853 10.968 25.4213 10.968 25.5973 10.968C 25.7733 10.952 25.9653 10.944 26.1733 10.944C 26.3813 10.928 26.5893 10.912 26.7973 10.896C 27.0053 10.88 27.1893 10.856 27.3493 10.824C 27.7013 10.776 28.0613 10.72 28.4293 10.656C 28.8133 10.576 29.0693 10.536 29.1973 10.536C 29.4213 10.536 29.5333 10.656 29.5333 10.896L 29.5333 12.192C 30.0933 11.584 30.6293 11.144 31.1413 10.872C 31.6533 10.584 32.2213 10.44 32.8453 10.44ZM 40.8902 17.496C 41.2742 16.552 41.5862 15.768 41.8262 15.144C 42.0822 14.52 42.2742 14.008 42.4022 13.608C 42.5462 13.208 42.6422 12.896 42.6902 12.672C 42.7542 12.432 42.7862 12.232 42.7862 12.072C 42.7862 11.752 42.5302 11.528 42.0182 11.4C 41.9062 11.368 41.8262 11.336 41.7782 11.304C 41.7302 11.256 41.7062 11.168 41.7062 11.04C 41.7062 10.992 41.7142 10.936 41.7302 10.872C 41.7462 10.792 41.7622 10.712 41.7782 10.632C 42.4182 10.68 43.1142 10.704 43.8662 10.704C 44.5382 10.704 45.1542 10.68 45.7142 10.632C 45.7462 10.712 45.7622 10.8 45.7622 10.896C 45.7782 10.992 45.7862 11.056 45.7862 11.088C 45.7862 11.264 45.6822 11.376 45.4742 11.424C 45.2502 11.472 45.0662 11.52 44.9222 11.568C 44.7942 11.6 44.6742 11.664 44.5622 11.76C 44.4662 11.84 44.3782 11.952 44.2982 12.096C 44.2182 12.224 44.1302 12.408 44.0342 12.648L 40.5062 21.24C 40.4262 21.272 40.3382 21.288 40.2422 21.288C 40.1622 21.288 40.0822 21.288 40.0022 21.288C 39.8902 21.288 39.7782 21.224 39.6662 21.096C 39.5702 20.968 39.4342 20.696 39.2582 20.28L 35.9702 12.648C 35.8582 12.408 35.7622 12.216 35.6822 12.072C 35.6022 11.928 35.5142 11.816 35.4182 11.736C 35.3222 11.656 35.2102 11.6 35.0822 11.568C 34.9542 11.52 34.7862 11.48 34.5782 11.448C 34.3702 11.432 34.2662 11.304 34.2662 11.064C 34.2662 10.952 34.2902 10.808 34.3382 10.632C 34.7382 10.664 35.1302 10.688 35.5142 10.704C 35.8982 10.704 36.4022 10.704 37.0262 10.704C 37.6022 10.704 38.1062 10.704 38.5382 10.704C 38.9702 10.688 39.4022 10.664 39.8342 10.632C 39.8822 10.808 39.9062 10.944 39.9062 11.04C 39.9062 11.248 39.8022 11.368 39.5942 11.4C 39.2102 11.448 38.9702 11.52 38.8742 11.616C 38.7942 11.696 38.7542 11.8 38.7542 11.928C 38.7542 12.008 38.7862 12.176 38.8502 12.432C 38.9142 12.672 39.0822 13.104 39.3542 13.728L 40.8902 17.496ZM 49.5403 21C 48.9163 21 48.3803 21.008 47.9323 21.024C 47.4843 21.056 47.0523 21.088 46.6363 21.12C 46.6043 20.96 46.5883 20.808 46.5883 20.664C 46.5883 20.552 46.6123 20.48 46.6603 20.448C 46.7243 20.4 46.7883 20.368 46.8523 20.352C 47.3643 20.256 47.7163 20.152 47.9083 20.04C 48.1003 19.928 48.1963 19.752 48.1963 19.512L 48.1963 13.176C 48.1963 12.696 48.1163 12.328 47.9563 12.072C 47.7963 11.816 47.4203 11.664 46.8283 11.616C 46.6203 11.584 46.5163 11.456 46.5163 11.232C 46.5163 11.184 46.5163 11.128 46.5163 11.064C 46.5163 10.984 46.5323 10.912 46.5643 10.848C 46.6603 10.848 46.7963 10.848 46.9723 10.848C 47.1643 10.832 47.3643 10.824 47.5723 10.824C 47.7803 10.808 47.9883 10.792 48.1963 10.776C 48.4043 10.76 48.5963 10.744 48.7723 10.728C 49.1723 10.68 49.5563 10.616 49.9243 10.536C 50.2923 10.456 50.5403 10.416 50.6683 10.416C 50.9243 10.416 51.0523 10.536 51.0523 10.776C 51.0523 10.952 51.0283 11.184 50.9803 11.472C 50.9323 11.76 50.9083 12.16 50.9083 12.672L 50.9083 19.512C 50.9083 19.752 51.0123 19.928 51.2203 20.04C 51.4283 20.152 51.7723 20.256 52.2523 20.352C 52.4283 20.384 52.5163 20.488 52.5163 20.664C 52.5163 20.744 52.5163 20.824 52.5163 20.904C 52.5163 20.984 52.5003 21.056 52.4683 21.12C 52.0683 21.088 51.6363 21.056 51.1723 21.024C 50.7083 21.008 50.1643 21 49.5403 21ZM 47.7883 6.912C 47.7883 6.4 47.9483 5.984 48.2683 5.664C 48.6043 5.328 49.0203 5.16 49.5163 5.16C 50.0283 5.16 50.4443 5.328 50.7643 5.664C 51.0843 5.984 51.2443 6.4 51.2443 6.912C 51.2443 7.424 51.0843 7.848 50.7643 8.184C 50.4443 8.504 50.0283 8.664 49.5163 8.664C 49.0203 8.664 48.6043 8.504 48.2683 8.184C 47.9483 7.848 47.7883 7.424 47.7883 6.912ZM 58.9185 11.472C 58.2465 11.472 57.7425 11.808 57.4065 12.48C 57.0705 13.136 56.9025 14.024 56.9025 15.144C 56.9025 16.744 57.1905 17.912 57.7665 18.648C 58.3585 19.384 59.1825 19.752 60.2385 19.752C 60.6225 19.752 60.9985 19.712 61.3665 19.632C 61.7505 19.536 62.1665 19.344 62.6145 19.056C 62.7745 18.96 62.9185 18.912 63.0465 18.912C 63.1745 18.912 63.2785 18.968 63.3585 19.08C 63.4385 19.176 63.5265 19.336 63.6225 19.56C 63.0945 20.04 62.4625 20.448 61.7265 20.784C 61.0065 21.12 60.1185 21.288 59.0625 21.288C 58.3585 21.288 57.6865 21.184 57.0465 20.976C 56.4225 20.768 55.8705 20.448 55.3905 20.016C 54.9265 19.584 54.5585 19.048 54.2865 18.408C 54.0145 17.752 53.8785 16.984 53.8785 16.104C 53.8785 15.256 54.0385 14.488 54.3585 13.8C 54.6945 13.096 55.1185 12.496 55.6305 12C 56.1425 11.488 56.7185 11.096 57.3585 10.824C 57.9985 10.552 58.6225 10.416 59.2305 10.416C 59.9985 10.416 60.6545 10.504 61.1985 10.68C 61.7425 10.856 62.1825 11.08 62.5185 11.352C 62.8705 11.608 63.1265 11.888 63.2865 12.192C 63.4465 12.48 63.5265 12.744 63.5265 12.984C 63.5265 13.112 63.4065 13.216 63.1665 13.296C 62.9425 13.376 62.6865 13.44 62.3985 13.488C 62.1105 13.52 61.8305 13.544 61.5585 13.56C 61.3025 13.56 61.1345 13.56 61.0545 13.56C 60.9105 13.56 60.7905 13.52 60.6945 13.44C 60.6145 13.344 60.5585 13.248 60.5265 13.152C 60.4465 12.944 60.3665 12.744 60.2865 12.552C 60.2065 12.344 60.1105 12.16 59.9985 12C 59.9025 11.84 59.7665 11.712 59.5905 11.616C 59.4145 11.52 59.1905 11.472 58.9185 11.472ZM 73.8261 18.792C 73.9701 18.68 74.0981 18.624 74.2101 18.624C 74.2901 18.624 74.3781 18.664 74.4741 18.744C 74.5861 18.808 74.6981 18.944 74.8101 19.152C 74.1861 19.888 73.4661 20.432 72.6501 20.784C 71.8501 21.12 70.8981 21.288 69.7941 21.288C 69.1701 21.288 68.5541 21.192 67.9461 21C 67.3541 20.792 66.8181 20.48 66.3381 20.064C 65.8581 19.632 65.4661 19.096 65.1621 18.456C 64.8741 17.816 64.7301 17.048 64.7301 16.152C 64.7301 15.272 64.8981 14.48 65.2341 13.776C 65.5861 13.056 66.0261 12.448 66.5541 11.952C 67.0821 11.456 67.6581 11.08 68.2821 10.824C 68.9061 10.552 69.5061 10.416 70.0821 10.416C 71.6341 10.416 72.8021 10.864 73.5861 11.76C 74.3861 12.656 74.7861 13.88 74.7861 15.432C 74.7861 15.544 74.7301 15.6 74.6181 15.6L 67.7301 15.888C 67.7301 17.136 68.0101 18.096 68.5701 18.768C 69.1301 19.424 69.9701 19.752 71.0901 19.752C 71.5861 19.752 72.0741 19.672 72.5541 19.512C 73.0341 19.352 73.4581 19.112 73.8261 18.792ZM 69.7221 11.472C 69.0981 11.472 68.5941 11.744 68.2101 12.288C 67.8421 12.816 67.6581 13.656 67.6581 14.808L 71.4021 14.64C 71.6421 14.624 71.7621 14.52 71.7621 14.328C 71.7621 14.024 71.7221 13.704 71.6421 13.368C 71.5621 13.032 71.4341 12.728 71.2581 12.456C 71.0981 12.168 70.8901 11.936 70.6341 11.76C 70.3781 11.568 70.0741 11.472 69.7221 11.472ZM 83.0996 13.632C 82.8756 13.616 82.7476 13.528 82.7156 13.368C 82.6036 12.712 82.3476 12.232 81.9476 11.928C 81.5476 11.624 81.0436 11.472 80.4356 11.472C 79.8916 11.472 79.4756 11.608 79.1876 11.88C 78.8996 12.152 78.7556 12.472 78.7556 12.84C 78.7556 13.016 78.7796 13.176 78.8276 13.32C 78.8756 13.464 78.9716 13.6 79.1156 13.728C 79.2756 13.856 79.4916 13.984 79.7636 14.112C 80.0356 14.224 80.4036 14.352 80.8676 14.496C 81.4116 14.656 81.8916 14.832 82.3076 15.024C 82.7236 15.2 83.0756 15.416 83.3636 15.672C 83.6516 15.928 83.8676 16.24 84.0116 16.608C 84.1716 16.96 84.2516 17.384 84.2516 17.88C 84.2516 18.344 84.1716 18.784 84.0116 19.2C 83.8676 19.616 83.6276 19.984 83.2916 20.304C 82.9556 20.608 82.5316 20.848 82.0196 21.024C 81.5076 21.2 80.8916 21.288 80.1716 21.288C 79.6596 21.288 79.0676 21.232 78.3956 21.12C 77.7396 21.008 77.1396 20.808 76.5956 20.52C 76.5636 20.104 76.5316 19.664 76.4996 19.2C 76.4836 18.72 76.4756 18.248 76.4756 17.784L 76.7876 17.784C 76.9636 17.784 77.1156 17.816 77.2436 17.88C 77.3716 17.928 77.4436 18.016 77.4596 18.144C 77.5236 18.816 77.7876 19.336 78.2516 19.704C 78.7156 20.056 79.3556 20.232 80.1716 20.232C 80.7316 20.232 81.1876 20.104 81.5396 19.848C 81.8916 19.592 82.0676 19.256 82.0676 18.84C 82.0676 18.456 81.9076 18.128 81.5876 17.856C 81.2836 17.584 80.6996 17.32 79.8356 17.064C 78.6676 16.728 77.8436 16.288 77.3636 15.744C 76.8996 15.184 76.6676 14.52 76.6676 13.752C 76.6676 12.744 77.0036 11.936 77.6756 11.328C 78.3636 10.72 79.2516 10.416 80.3396 10.416C 80.9636 10.416 81.5636 10.496 82.1396 10.656C 82.7316 10.8 83.2036 10.96 83.5556 11.136C 83.5716 11.264 83.5876 11.44 83.6036 11.664C 83.6196 11.872 83.6356 12.104 83.6516 12.36C 83.6676 12.6 83.6756 12.84 83.6756 13.08C 83.6916 13.304 83.6996 13.496 83.6996 13.656L 83.0996 13.632Z"/>
<path id="path6_fill" d="M 13.968 20.88C 13.584 20.944 13.224 21 12.888 21.048C 12.552 21.096 12.2 21.136 11.832 21.168C 11.48 21.216 11.088 21.248 10.656 21.264C 10.24 21.28 9.752 21.288 9.192 21.288C 7.752 21.288 6.504 21.096 5.448 20.712C 4.408 20.328 3.552 19.784 2.88 19.08C 2.208 18.36 1.704 17.504 1.368 16.512C 1.048 15.52 0.888 14.416 0.888 13.2C 0.888 12.256 1.048 11.304 1.368 10.344C 1.688 9.384 2.176 8.52 2.832 7.752C 3.504 6.968 4.336 6.336 5.328 5.856C 6.336 5.36 7.512 5.112 8.856 5.112C 9.784 5.112 10.728 5.184 11.688 5.328C 12.664 5.456 13.584 5.632 14.448 5.856C 14.48 6.288 14.544 6.84 14.64 7.512C 14.736 8.184 14.872 8.84 15.048 9.48C 14.968 9.496 14.872 9.52 14.76 9.552C 14.648 9.568 14.56 9.576 14.496 9.576C 14.368 9.576 14.256 9.56 14.16 9.528C 14.08 9.48 14.024 9.392 13.992 9.264C 13.656 8.16 13.104 7.408 12.336 7.008C 11.568 6.592 10.616 6.384 9.48 6.384C 8.616 6.384 7.848 6.536 7.176 6.84C 6.52 7.128 5.968 7.552 5.52 8.112C 5.088 8.656 4.752 9.32 4.512 10.104C 4.288 10.872 4.176 11.744 4.176 12.72C 4.176 13.792 4.304 14.776 4.56 15.672C 4.816 16.568 5.192 17.344 5.688 18C 6.184 18.64 6.792 19.144 7.512 19.512C 8.248 19.864 9.088 20.04 10.032 20.04C 10.368 20.04 10.664 20.024 10.92 19.992C 11.192 19.96 11.472 19.904 11.76 19.824L 11.76 16.368C 11.76 15.936 11.64 15.64 11.4 15.48C 11.16 15.304 10.736 15.176 10.128 15.096C 10 15.064 9.912 15 9.864 14.904C 9.816 14.792 9.792 14.688 9.792 14.592C 9.792 14.544 9.792 14.472 9.792 14.376C 9.808 14.28 9.824 14.208 9.84 14.16C 10.08 14.176 10.344 14.192 10.632 14.208C 10.936 14.224 11.24 14.24 11.544 14.256C 11.864 14.256 12.168 14.264 12.456 14.28C 12.744 14.28 12.992 14.28 13.2 14.28C 13.408 14.28 13.648 14.28 13.92 14.28C 14.208 14.264 14.496 14.256 14.784 14.256C 15.088 14.24 15.376 14.224 15.648 14.208C 15.936 14.192 16.176 14.176 16.368 14.16C 16.4 14.24 16.416 14.32 16.416 14.4C 16.416 14.48 16.416 14.544 16.416 14.592C 16.416 14.736 16.384 14.848 16.32 14.928C 16.272 14.992 16.208 15.04 16.128 15.072C 15.616 15.136 15.256 15.24 15.048 15.384C 14.856 15.528 14.76 15.768 14.76 16.104L 14.76 20.28C 14.76 20.424 14.72 20.544 14.64 20.64C 14.56 20.736 14.336 20.816 13.968 20.88ZM 27.9892 20.256C 28.2292 20.256 28.3492 20.456 28.3492 20.856C 28.1412 21 27.8773 21.104 27.5572 21.168C 27.2533 21.248 26.9413 21.288 26.6212 21.288C 25.9012 21.288 25.3493 21.112 24.9653 20.76C 24.5813 20.408 24.3573 20 24.2933 19.536C 23.9733 20.176 23.5413 20.632 22.9973 20.904C 22.4693 21.16 21.8453 21.288 21.1253 21.288C 20.7893 21.288 20.4133 21.256 19.9973 21.192C 19.5973 21.144 19.2213 21.032 18.8693 20.856C 18.5333 20.68 18.2452 20.432 18.0053 20.112C 17.7653 19.792 17.6453 19.368 17.6453 18.84C 17.6453 18.248 17.7973 17.744 18.1013 17.328C 18.4052 16.912 18.7812 16.568 19.2293 16.296C 19.6932 16.008 20.1973 15.784 20.7413 15.624C 21.2853 15.448 21.7973 15.304 22.2773 15.192C 22.4853 15.144 22.7012 15.096 22.9252 15.048C 23.1492 14.984 23.3253 14.936 23.4533 14.904C 23.6292 14.856 23.7413 14.792 23.7892 14.712C 23.8372 14.616 23.8612 14.384 23.8612 14.016C 23.8612 13.2 23.7412 12.576 23.5012 12.144C 23.2612 11.696 22.8533 11.472 22.2773 11.472C 21.8133 11.472 21.4773 11.616 21.2692 11.904C 21.0772 12.192 20.8932 12.648 20.7172 13.272C 20.6692 13.448 20.5252 13.584 20.2852 13.68C 20.0612 13.76 19.7733 13.848 19.4213 13.944C 19.2293 13.992 19.0292 14.032 18.8212 14.064C 18.6292 14.096 18.4533 14.112 18.2933 14.112C 18.1973 14.112 18.1333 14.08 18.1013 14.016C 18.0693 13.936 18.0532 13.792 18.0532 13.584C 18.0532 13.184 18.1973 12.792 18.4853 12.408C 18.7892 12.024 19.1653 11.688 19.6133 11.4C 20.0613 11.096 20.5493 10.856 21.0772 10.68C 21.6212 10.504 22.1413 10.416 22.6373 10.416C 23.2293 10.416 23.7652 10.472 24.2452 10.584C 24.7252 10.68 25.1333 10.864 25.4692 11.136C 25.8212 11.392 26.0933 11.744 26.2853 12.192C 26.4773 12.624 26.5733 13.184 26.5733 13.872L 26.5733 18.096C 26.5733 18.656 26.5813 19.064 26.5973 19.32C 26.6293 19.576 26.6773 19.768 26.7413 19.896C 26.8852 20.184 27.1092 20.328 27.4132 20.328C 27.5412 20.328 27.6453 20.32 27.7253 20.304C 27.8213 20.272 27.9092 20.256 27.9892 20.256ZM 23.8612 15.768L 23.3332 15.864C 22.9652 15.928 22.6212 16.024 22.3012 16.152C 21.9812 16.264 21.7012 16.424 21.4612 16.632C 21.2372 16.824 21.0532 17.072 20.9093 17.376C 20.7812 17.664 20.7172 18.016 20.7172 18.432C 20.7172 19.056 20.8133 19.496 21.0053 19.752C 21.2133 19.992 21.5093 20.112 21.8933 20.112C 22.5013 20.112 22.9812 19.888 23.3332 19.44C 23.6852 18.992 23.8612 18.368 23.8612 17.568L 23.8612 15.768ZM 35.1246 21.12C 34.7086 21.088 34.2286 21.056 33.6846 21.024C 33.1566 21.008 32.6606 21 32.1966 21C 31.6846 21 31.1726 21.008 30.6606 21.024C 30.1646 21.056 29.7086 21.088 29.2926 21.12C 29.2766 21.056 29.2606 20.992 29.2446 20.928C 29.2446 20.848 29.2446 20.76 29.2446 20.664C 29.2446 20.552 29.2686 20.48 29.3166 20.448C 29.3806 20.4 29.4446 20.368 29.5086 20.352C 30.0206 20.256 30.3726 20.152 30.5646 20.04C 30.7566 19.928 30.8526 19.752 30.8526 19.512L 30.8526 6.936C 30.8526 6.456 30.7646 6.096 30.5886 5.856C 30.4126 5.6 30.0446 5.448 29.4846 5.4C 29.2766 5.352 29.1726 5.224 29.1726 5.016C 29.1726 4.968 29.1726 4.904 29.1726 4.824C 29.1726 4.744 29.1886 4.68 29.2206 4.632C 29.3166 4.632 29.4526 4.632 29.6286 4.632C 29.8206 4.616 30.0206 4.608 30.2286 4.608C 30.4366 4.592 30.6446 4.576 30.8526 4.56C 31.0606 4.544 31.2526 4.528 31.4286 4.512C 31.8286 4.464 32.2126 4.4 32.5806 4.32C 32.9486 4.24 33.1966 4.2 33.3246 4.2C 33.5806 4.2 33.7086 4.32 33.7086 4.56C 33.7086 4.736 33.6846 4.968 33.6366 5.256C 33.5886 5.528 33.5646 5.92 33.5646 6.432L 33.5646 19.512C 33.5646 19.752 33.6606 19.928 33.8526 20.04C 34.0446 20.152 34.3966 20.256 34.9086 20.352C 35.0846 20.384 35.1726 20.488 35.1726 20.664C 35.1726 20.888 35.1566 21.04 35.1246 21.12ZM 42.3433 21.12C 41.9273 21.088 41.4473 21.056 40.9033 21.024C 40.3753 21.008 39.8793 21 39.4153 21C 38.9033 21 38.3913 21.008 37.8793 21.024C 37.3833 21.056 36.9273 21.088 36.5113 21.12C 36.4953 21.056 36.4793 20.992 36.4633 20.928C 36.4633 20.848 36.4633 20.76 36.4633 20.664C 36.4633 20.552 36.4873 20.48 36.5353 20.448C 36.5993 20.4 36.6633 20.368 36.7273 20.352C 37.2393 20.256 37.5913 20.152 37.7833 20.04C 37.9753 19.928 38.0713 19.752 38.0713 19.512L 38.0713 6.936C 38.0713 6.456 37.9833 6.096 37.8073 5.856C 37.6313 5.6 37.2633 5.448 36.7033 5.4C 36.4953 5.352 36.3913 5.224 36.3913 5.016C 36.3913 4.968 36.3913 4.904 36.3913 4.824C 36.3913 4.744 36.4073 4.68 36.4393 4.632C 36.5353 4.632 36.6713 4.632 36.8473 4.632C 37.0393 4.616 37.2393 4.608 37.4473 4.608C 37.6553 4.592 37.8633 4.576 38.0713 4.56C 38.2793 4.544 38.4713 4.528 38.6473 4.512C 39.0473 4.464 39.4313 4.4 39.7993 4.32C 40.1673 4.24 40.4153 4.2 40.5433 4.2C 40.7993 4.2 40.9273 4.32 40.9273 4.56C 40.9273 4.736 40.9033 4.968 40.8553 5.256C 40.8073 5.528 40.7833 5.92 40.7833 6.432L 40.7833 19.512C 40.7833 19.752 40.8793 19.928 41.0713 20.04C 41.2633 20.152 41.6153 20.256 42.1273 20.352C 42.3033 20.384 42.3913 20.488 42.3913 20.664C 42.3913 20.888 42.3753 21.04 42.3433 21.12ZM 52.8261 18.792C 52.9701 18.68 53.0981 18.624 53.2101 18.624C 53.2901 18.624 53.3781 18.664 53.4741 18.744C 53.5861 18.808 53.6981 18.944 53.8101 19.152C 53.1861 19.888 52.4661 20.432 51.6501 20.784C 50.8501 21.12 49.8981 21.288 48.7941 21.288C 48.1701 21.288 47.5541 21.192 46.9461 21C 46.3541 20.792 45.8181 20.48 45.3381 20.064C 44.8581 19.632 44.4661 19.096 44.1621 18.456C 43.8741 17.816 43.7301 17.048 43.7301 16.152C 43.7301 15.272 43.8981 14.48 44.2341 13.776C 44.5861 13.056 45.0261 12.448 45.5541 11.952C 46.0821 11.456 46.6581 11.08 47.2821 10.824C 47.9061 10.552 48.5061 10.416 49.0821 10.416C 50.6341 10.416 51.8021 10.864 52.5861 11.76C 53.3861 12.656 53.7861 13.88 53.7861 15.432C 53.7861 15.544 53.7301 15.6 53.6181 15.6L 46.7301 15.888C 46.7301 17.136 47.0101 18.096 47.5701 18.768C 48.1301 19.424 48.9701 19.752 50.0901 19.752C 50.5861 19.752 51.0741 19.672 51.5541 19.512C 52.0341 19.352 52.4581 19.112 52.8261 18.792ZM 48.7221 11.472C 48.0981 11.472 47.5941 11.744 47.2101 12.288C 46.8421 12.816 46.6581 13.656 46.6581 14.808L 50.4021 14.64C 50.6421 14.624 50.7621 14.52 50.7621 14.328C 50.7621 14.024 50.7221 13.704 50.6421 13.368C 50.5621 13.032 50.4341 12.728 50.2581 12.456C 50.0981 12.168 49.8901 11.936 49.6341 11.76C 49.3781 11.568 49.0741 11.472 48.7221 11.472ZM 62.9156 10.44C 63.3796 10.44 63.7236 10.56 63.9476 10.8C 64.1876 11.04 64.3076 11.344 64.3076 11.712C 64.3076 11.824 64.2836 11.92 64.2356 12C 64.2036 12.08 64.1156 12.168 63.9716 12.264C 63.8436 12.36 63.6596 12.472 63.4196 12.6C 63.1796 12.712 62.8676 12.856 62.4836 13.032C 62.2276 12.776 61.9876 12.608 61.7636 12.528C 61.5556 12.432 61.3476 12.384 61.1396 12.384C 60.9476 12.384 60.7556 12.416 60.5636 12.48C 60.3876 12.544 60.2276 12.672 60.0836 12.864C 59.9396 13.04 59.8196 13.28 59.7236 13.584C 59.6436 13.888 59.6036 14.28 59.6036 14.76L 59.6036 19.224C 59.6036 19.544 59.7316 19.784 59.9876 19.944C 60.2436 20.088 60.7476 20.224 61.4996 20.352C 61.6756 20.384 61.7636 20.488 61.7636 20.664C 61.7636 20.888 61.7476 21.04 61.7156 21.12C 61.5076 21.104 61.2516 21.088 60.9476 21.072C 60.6436 21.072 60.3236 21.064 59.9876 21.048C 59.6516 21.032 59.3156 21.016 58.9796 21C 58.6596 21 58.3716 21 58.1156 21C 57.5076 21 56.9876 21.008 56.5556 21.024C 56.1236 21.056 55.7156 21.088 55.3316 21.12C 55.2996 21.04 55.2836 20.888 55.2836 20.664C 55.2836 20.488 55.3716 20.384 55.5476 20.352C 56.0596 20.256 56.4116 20.152 56.6036 20.04C 56.7956 19.928 56.8916 19.752 56.8916 19.512L 56.8916 13.056C 56.8916 12.688 56.8196 12.392 56.6756 12.168C 56.5476 11.944 56.1716 11.792 55.5476 11.712C 55.3236 11.68 55.2116 11.56 55.2116 11.352C 55.2116 11.304 55.2116 11.24 55.2116 11.16C 55.2116 11.08 55.2276 11.016 55.2596 10.968C 55.3556 10.968 55.4916 10.968 55.6676 10.968C 55.8436 10.952 56.0356 10.944 56.2436 10.944C 56.4516 10.928 56.6596 10.912 56.8676 10.896C 57.0756 10.88 57.2596 10.856 57.4196 10.824C 57.7716 10.776 58.1316 10.72 58.4996 10.656C 58.8836 10.576 59.1396 10.536 59.2676 10.536C 59.4916 10.536 59.6036 10.656 59.6036 10.896L 59.6036 12.192C 60.1636 11.584 60.6996 11.144 61.2116 10.872C 61.7236 10.584 62.2916 10.44 62.9156 10.44ZM 71.1285 17.496C 71.5125 16.552 71.8325 15.768 72.0885 15.144C 72.3605 14.52 72.5765 14.008 72.7365 13.608C 72.8965 13.208 73.0085 12.896 73.0725 12.672C 73.1525 12.432 73.1925 12.232 73.1925 12.072C 73.1925 11.752 72.9365 11.528 72.4245 11.4C 72.3125 11.368 72.2325 11.336 72.1845 11.304C 72.1365 11.256 72.1125 11.168 72.1125 11.04C 72.1125 10.992 72.1205 10.936 72.1365 10.872C 72.1525 10.792 72.1685 10.712 72.1845 10.632C 72.8245 10.68 73.5205 10.704 74.2725 10.704C 74.9445 10.704 75.5605 10.68 76.1205 10.632C 76.1525 10.712 76.1685 10.8 76.1685 10.896C 76.1845 10.992 76.1925 11.056 76.1925 11.088C 76.1925 11.264 76.0885 11.376 75.8805 11.424C 75.6565 11.472 75.4725 11.52 75.3285 11.568C 75.2005 11.6 75.0885 11.664 74.9925 11.76C 74.8965 11.84 74.8085 11.952 74.7285 12.096C 74.6485 12.224 74.5525 12.408 74.4405 12.648L 69.4005 24.432C 69.0325 25.28 68.5125 25.88 67.8405 26.232C 67.1845 26.584 66.4725 26.76 65.7045 26.76C 65.5605 26.76 65.4565 26.72 65.3925 26.64C 65.3285 26.56 65.2965 26.472 65.2965 26.376C 65.2965 25.832 65.3925 25.36 65.5845 24.96C 65.7765 24.576 66.0005 24.384 66.2565 24.384C 66.4005 24.384 66.5285 24.4 66.6405 24.432C 66.7525 24.464 66.9125 24.48 67.1205 24.48C 67.5365 24.48 67.8485 24.392 68.0565 24.216C 68.2805 24.056 68.4725 23.792 68.6325 23.424L 69.7125 20.832L 66.0405 12.648C 65.9285 12.408 65.8325 12.224 65.7525 12.096C 65.6725 11.952 65.5845 11.84 65.4885 11.76C 65.3925 11.68 65.2805 11.624 65.1525 11.592C 65.0245 11.544 64.8565 11.496 64.6485 11.448C 64.4405 11.4 64.3365 11.264 64.3365 11.04C 64.3365 10.944 64.3605 10.808 64.4085 10.632C 64.7925 10.664 65.2005 10.688 65.6325 10.704C 66.0645 10.704 66.5925 10.704 67.2165 10.704C 67.7925 10.704 68.2885 10.704 68.7045 10.704C 69.1205 10.688 69.5365 10.664 69.9525 10.632C 70.0005 10.808 70.0245 10.944 70.0245 11.04C 70.0245 11.248 69.9205 11.368 69.7125 11.4C 69.3285 11.448 69.0805 11.52 68.9685 11.616C 68.8725 11.696 68.8245 11.8 68.8245 11.928C 68.8245 12.008 68.8645 12.176 68.9445 12.432C 69.0245 12.688 69.2005 13.12 69.4725 13.728L 71.1285 17.496Z"/>
<path id="path7_fill" d="M 8.88 21.288C 7.536 21.288 6.36 21.08 5.352 20.664C 4.344 20.248 3.512 19.68 2.856 18.96C 2.2 18.224 1.704 17.368 1.368 16.392C 1.048 15.4 0.888 14.336 0.888 13.2C 0.888 12.256 1.048 11.304 1.368 10.344C 1.688 9.384 2.192 8.52 2.88 7.752C 3.568 6.968 4.448 6.336 5.52 5.856C 6.592 5.36 7.872 5.112 9.36 5.112C 10.176 5.112 10.936 5.168 11.64 5.28C 12.36 5.392 13.136 5.56 13.968 5.784C 14 6.216 14.064 6.768 14.16 7.44C 14.256 8.112 14.392 8.768 14.568 9.408C 14.488 9.424 14.384 9.448 14.256 9.48C 14.128 9.496 14.032 9.504 13.968 9.504C 13.84 9.504 13.728 9.488 13.632 9.456C 13.552 9.408 13.496 9.32 13.464 9.192C 13.288 8.664 13.088 8.224 12.864 7.872C 12.64 7.504 12.368 7.216 12.048 7.008C 11.744 6.784 11.384 6.624 10.968 6.528C 10.552 6.432 10.064 6.384 9.504 6.384C 8.64 6.384 7.872 6.536 7.2 6.84C 6.544 7.128 5.992 7.552 5.544 8.112C 5.096 8.656 4.752 9.32 4.512 10.104C 4.288 10.872 4.176 11.744 4.176 12.72C 4.176 13.76 4.312 14.728 4.584 15.624C 4.872 16.52 5.256 17.296 5.736 17.952C 6.232 18.608 6.816 19.12 7.488 19.488C 8.16 19.856 8.888 20.04 9.672 20.04C 10.312 20.04 10.856 19.984 11.304 19.872C 11.768 19.744 12.16 19.56 12.48 19.32C 12.816 19.064 13.096 18.744 13.32 18.36C 13.56 17.976 13.776 17.528 13.968 17.016C 14.016 16.888 14.088 16.8 14.184 16.752C 14.296 16.688 14.408 16.656 14.52 16.656C 14.6 16.656 14.696 16.672 14.808 16.704C 14.936 16.72 15.04 16.744 15.12 16.776C 15.024 17.048 14.92 17.36 14.808 17.712C 14.712 18.048 14.608 18.4 14.496 18.768C 14.384 19.12 14.28 19.48 14.184 19.848C 14.104 20.2 14.032 20.544 13.968 20.88C 13.184 21.024 12.384 21.128 11.568 21.192C 10.752 21.256 9.856 21.288 8.88 21.288ZM 16.6597 15.864C 16.6597 15.08 16.7958 14.36 17.0678 13.704C 17.3558 13.032 17.7477 12.456 18.2437 11.976C 18.7397 11.48 19.3318 11.096 20.0198 10.824C 20.7078 10.552 21.4598 10.416 22.2758 10.416C 23.1238 10.416 23.8918 10.552 24.5798 10.824C 25.2677 11.096 25.8598 11.48 26.3558 11.976C 26.8517 12.456 27.2278 13.032 27.4838 13.704C 27.7558 14.36 27.8918 15.08 27.8918 15.864C 27.8918 16.648 27.7477 17.376 27.4597 18.048C 27.1878 18.704 26.7957 19.272 26.2837 19.752C 25.7877 20.232 25.1958 20.608 24.5078 20.88C 23.8198 21.152 23.0678 21.288 22.2518 21.288C 21.4038 21.288 20.6357 21.152 19.9477 20.88C 19.2598 20.608 18.6677 20.232 18.1717 19.752C 17.6917 19.272 17.3157 18.704 17.0437 18.048C 16.7877 17.376 16.6597 16.648 16.6597 15.864ZM 19.6837 15.384C 19.6837 16.856 19.9238 18.032 20.4038 18.912C 20.8998 19.792 21.6038 20.232 22.5158 20.232C 23.3637 20.232 23.9638 19.896 24.3158 19.224C 24.6838 18.536 24.8678 17.576 24.8678 16.344C 24.8678 14.888 24.6197 13.712 24.1238 12.816C 23.6278 11.92 22.9318 11.472 22.0358 11.472C 21.1878 11.472 20.5798 11.824 20.2118 12.528C 19.8598 13.216 19.6837 14.168 19.6837 15.384ZM 40.5909 19.536C 40.5909 19.76 40.6869 19.936 40.8789 20.064C 41.0709 20.176 41.4229 20.272 41.9349 20.352C 41.9989 20.368 42.0549 20.4 42.1029 20.448C 42.1669 20.48 42.1989 20.552 42.1989 20.664C 42.1989 20.76 42.1909 20.848 42.1749 20.928C 42.1749 20.992 42.1669 21.056 42.1509 21.12C 41.7349 21.088 41.3189 21.056 40.9029 21.024C 40.4869 21.008 39.9669 21 39.3429 21C 38.8309 21 38.3509 21.008 37.9029 21.024C 37.4549 21.056 37.0229 21.088 36.6069 21.12C 36.5749 21.04 36.5589 20.888 36.5589 20.664C 36.5589 20.488 36.6469 20.384 36.8229 20.352C 37.2389 20.272 37.5189 20.176 37.6629 20.064C 37.8069 19.952 37.8789 19.776 37.8789 19.536L 37.8789 14.832C 37.8789 13.888 37.7589 13.24 37.5189 12.888C 37.2949 12.52 36.9269 12.336 36.4149 12.336C 35.6949 12.336 35.0789 12.584 34.5669 13.08C 34.0549 13.56 33.7989 14.28 33.7989 15.24L 33.7989 19.536C 33.7989 19.776 33.8709 19.952 34.0149 20.064C 34.1589 20.176 34.4389 20.272 34.8549 20.352C 35.0309 20.384 35.1189 20.488 35.1189 20.664C 35.1189 20.888 35.1029 21.04 35.0709 21.12C 34.6549 21.088 34.2229 21.056 33.7749 21.024C 33.3269 21.008 32.8469 21 32.3349 21C 31.7109 21 31.1829 21.008 30.7509 21.024C 30.3349 21.056 29.9269 21.088 29.5269 21.12C 29.5109 21.056 29.4949 20.992 29.4789 20.928C 29.4789 20.848 29.4789 20.76 29.4789 20.664C 29.4789 20.552 29.5029 20.48 29.5509 20.448C 29.6149 20.4 29.6789 20.368 29.7429 20.352C 30.2549 20.256 30.6069 20.152 30.7989 20.04C 30.9909 19.928 31.0869 19.752 31.0869 19.512L 31.0869 13.176C 31.0869 12.696 30.9989 12.328 30.8229 12.072C 30.6469 11.816 30.2789 11.664 29.7189 11.616C 29.5109 11.568 29.4069 11.44 29.4069 11.232C 29.4069 11.184 29.4069 11.128 29.4069 11.064C 29.4069 10.984 29.4229 10.912 29.4549 10.848C 29.5509 10.848 29.6869 10.848 29.8629 10.848C 30.0549 10.832 30.2549 10.824 30.4629 10.824C 30.6709 10.808 30.8789 10.792 31.0869 10.776C 31.2949 10.76 31.4869 10.744 31.6629 10.728C 32.0629 10.68 32.4469 10.616 32.8149 10.536C 33.1829 10.456 33.4309 10.416 33.5589 10.416C 33.8149 10.416 33.9429 10.536 33.9429 10.776C 33.9429 10.952 33.9189 11.184 33.8709 11.472C 33.8229 11.76 33.7989 12.16 33.7989 12.672C 34.3109 12 34.8789 11.456 35.5029 11.04C 36.1269 10.624 36.7749 10.416 37.4469 10.416C 38.4229 10.416 39.1909 10.688 39.7509 11.232C 40.3109 11.776 40.5909 12.592 40.5909 13.68L 40.5909 19.536ZM 49.8311 19.44C 49.9911 19.344 50.1271 19.296 50.2391 19.296C 50.3991 19.296 50.5671 19.464 50.7431 19.8C 50.0711 20.408 49.4791 20.808 48.9671 21C 48.4711 21.192 47.9431 21.288 47.3831 21.288C 47.0631 21.288 46.7511 21.248 46.4471 21.168C 46.1591 21.088 45.8951 20.944 45.6551 20.736C 45.4151 20.528 45.2231 20.248 45.0791 19.896C 44.9351 19.528 44.8631 19.064 44.8631 18.504L 44.8631 11.904L 43.4231 11.904L 43.4231 11.304C 43.4231 11.24 43.4391 11.16 43.4711 11.064C 43.5031 10.968 43.5991 10.92 43.7591 10.92C 44.1911 10.92 44.5911 10.8 44.9591 10.56C 45.3271 10.304 45.6231 9.928 45.8471 9.432C 46.0231 9.064 46.2151 8.768 46.4231 8.544C 46.6471 8.32 46.8631 8.208 47.0711 8.208L 47.5751 8.208L 47.5751 10.704L 50.3831 10.704C 50.3831 11.216 50.3431 11.544 50.2631 11.688C 50.1991 11.832 50.0711 11.904 49.8791 11.904L 47.5751 11.904L 47.5751 17.832C 47.5751 18.312 47.5911 18.696 47.6231 18.984C 47.6551 19.256 47.7031 19.464 47.7671 19.608C 47.8471 19.752 47.9431 19.848 48.0551 19.896C 48.1831 19.928 48.3271 19.944 48.4871 19.944C 48.6631 19.944 48.8711 19.904 49.1111 19.824C 49.3511 19.728 49.5911 19.6 49.8311 19.44ZM 62.0439 20.256C 62.2839 20.256 62.4039 20.456 62.4039 20.856C 62.1959 21 61.9319 21.104 61.6119 21.168C 61.3079 21.248 60.9959 21.288 60.6759 21.288C 59.9559 21.288 59.4039 21.112 59.0199 20.76C 58.6359 20.408 58.4119 20 58.3479 19.536C 58.0279 20.176 57.5959 20.632 57.0519 20.904C 56.5239 21.16 55.8999 21.288 55.1799 21.288C 54.8439 21.288 54.4679 21.256 54.0519 21.192C 53.6519 21.144 53.2759 21.032 52.9239 20.856C 52.5879 20.68 52.2999 20.432 52.0599 20.112C 51.8199 19.792 51.6999 19.368 51.6999 18.84C 51.6999 18.248 51.8519 17.744 52.1559 17.328C 52.4599 16.912 52.8359 16.568 53.2839 16.296C 53.7479 16.008 54.2519 15.784 54.7959 15.624C 55.3399 15.448 55.8519 15.304 56.3319 15.192C 56.5399 15.144 56.7559 15.096 56.9799 15.048C 57.2039 14.984 57.3799 14.936 57.5079 14.904C 57.6839 14.856 57.7959 14.792 57.8439 14.712C 57.8919 14.616 57.9159 14.384 57.9159 14.016C 57.9159 13.2 57.7959 12.576 57.5559 12.144C 57.3159 11.696 56.9079 11.472 56.3319 11.472C 55.8679 11.472 55.5319 11.616 55.3239 11.904C 55.1319 12.192 54.9479 12.648 54.7719 13.272C 54.7239 13.448 54.5799 13.584 54.3399 13.68C 54.1159 13.76 53.8279 13.848 53.4759 13.944C 53.2839 13.992 53.0839 14.032 52.8759 14.064C 52.6839 14.096 52.5079 14.112 52.3479 14.112C 52.2519 14.112 52.1879 14.08 52.1559 14.016C 52.1239 13.936 52.1079 13.792 52.1079 13.584C 52.1079 13.184 52.2519 12.792 52.5399 12.408C 52.8439 12.024 53.2199 11.688 53.6679 11.4C 54.1159 11.096 54.6039 10.856 55.1319 10.68C 55.6759 10.504 56.1959 10.416 56.6919 10.416C 57.2839 10.416 57.8199 10.472 58.2999 10.584C 58.7799 10.68 59.1879 10.864 59.5239 11.136C 59.8759 11.392 60.1479 11.744 60.3399 12.192C 60.5319 12.624 60.6279 13.184 60.6279 13.872L 60.6279 18.096C 60.6279 18.656 60.6359 19.064 60.6519 19.32C 60.6839 19.576 60.7319 19.768 60.7959 19.896C 60.9399 20.184 61.1639 20.328 61.4679 20.328C 61.5959 20.328 61.6999 20.32 61.7799 20.304C 61.8759 20.272 61.9639 20.256 62.0439 20.256ZM 57.9159 15.768L 57.3879 15.864C 57.0199 15.928 56.6759 16.024 56.3559 16.152C 56.0359 16.264 55.7559 16.424 55.5159 16.632C 55.2919 16.824 55.1079 17.072 54.9639 17.376C 54.8359 17.664 54.7719 18.016 54.7719 18.432C 54.7719 19.056 54.8679 19.496 55.0599 19.752C 55.2679 19.992 55.5639 20.112 55.9479 20.112C 56.5559 20.112 57.0359 19.888 57.3879 19.44C 57.7399 18.992 57.9159 18.368 57.9159 17.568L 57.9159 15.768ZM 68.3872 11.472C 67.7152 11.472 67.2112 11.808 66.8752 12.48C 66.5392 13.136 66.3713 14.024 66.3713 15.144C 66.3713 16.744 66.6593 17.912 67.2353 18.648C 67.8273 19.384 68.6513 19.752 69.7073 19.752C 70.0913 19.752 70.4673 19.712 70.8353 19.632C 71.2193 19.536 71.6352 19.344 72.0832 19.056C 72.2432 18.96 72.3873 18.912 72.5153 18.912C 72.6433 18.912 72.7472 18.968 72.8272 19.08C 72.9072 19.176 72.9952 19.336 73.0913 19.56C 72.5632 20.04 71.9313 20.448 71.1953 20.784C 70.4753 21.12 69.5872 21.288 68.5312 21.288C 67.8273 21.288 67.1552 21.184 66.5152 20.976C 65.8912 20.768 65.3393 20.448 64.8593 20.016C 64.3953 19.584 64.0273 19.048 63.7553 18.408C 63.4833 17.752 63.3473 16.984 63.3473 16.104C 63.3473 15.256 63.5072 14.488 63.8272 13.8C 64.1633 13.096 64.5872 12.496 65.0992 12C 65.6112 11.488 66.1872 11.096 66.8272 10.824C 67.4672 10.552 68.0913 10.416 68.6993 10.416C 69.4673 10.416 70.1232 10.504 70.6672 10.68C 71.2112 10.856 71.6513 11.08 71.9873 11.352C 72.3393 11.608 72.5953 11.888 72.7553 12.192C 72.9153 12.48 72.9952 12.744 72.9952 12.984C 72.9952 13.112 72.8752 13.216 72.6352 13.296C 72.4112 13.376 72.1552 13.44 71.8672 13.488C 71.5793 13.52 71.2993 13.544 71.0272 13.56C 70.7712 13.56 70.6033 13.56 70.5233 13.56C 70.3792 13.56 70.2593 13.52 70.1633 13.44C 70.0833 13.344 70.0272 13.248 69.9952 13.152C 69.9153 12.944 69.8353 12.744 69.7553 12.552C 69.6753 12.344 69.5793 12.16 69.4673 12C 69.3713 11.84 69.2353 11.712 69.0593 11.616C 68.8833 11.52 68.6593 11.472 68.3872 11.472ZM 80.7452 19.44C 80.9052 19.344 81.0412 19.296 81.1532 19.296C 81.3132 19.296 81.4812 19.464 81.6572 19.8C 80.9852 20.408 80.3932 20.808 79.8812 21C 79.3852 21.192 78.8572 21.288 78.2972 21.288C 77.9772 21.288 77.6652 21.248 77.3612 21.168C 77.0732 21.088 76.8092 20.944 76.5692 20.736C 76.3292 20.528 76.1372 20.248 75.9932 19.896C 75.8492 19.528 75.7772 19.064 75.7772 18.504L 75.7772 11.904L 74.3372 11.904L 74.3372 11.304C 74.3372 11.24 74.3532 11.16 74.3852 11.064C 74.4172 10.968 74.5132 10.92 74.6732 10.92C 75.1052 10.92 75.5052 10.8 75.8732 10.56C 76.2412 10.304 76.5372 9.928 76.7612 9.432C 76.9372 9.064 77.1292 8.768 77.3372 8.544C 77.5612 8.32 77.7772 8.208 77.9852 8.208L 78.4892 8.208L 78.4892 10.704L 81.2972 10.704C 81.2972 11.216 81.2572 11.544 81.1772 11.688C 81.1132 11.832 80.9852 11.904 80.7932 11.904L 78.4892 11.904L 78.4892 17.832C 78.4892 18.312 78.5052 18.696 78.5372 18.984C 78.5692 19.256 78.6172 19.464 78.6812 19.608C 78.7612 19.752 78.8572 19.848 78.9692 19.896C 79.0972 19.928 79.2412 19.944 79.4012 19.944C 79.5772 19.944 79.7852 19.904 80.0252 19.824C 80.2652 19.728 80.5052 19.6 80.7452 19.44ZM 102.245 15.072C 102.245 15.984 102.149 16.824 101.957 17.592C 101.765 18.344 101.429 19 100.949 19.56C 100.485 20.104 99.8531 20.528 99.0531 20.832C 98.2691 21.136 97.2771 21.288 96.0771 21.288C 94.6531 21.288 93.5011 21.128 92.6211 20.808C 91.7571 20.488 91.0851 20.056 90.6051 19.512C 90.1411 18.952 89.8291 18.304 89.6691 17.568C 89.5091 16.816 89.4291 16.016 89.4291 15.168L 89.4291 7.2C 89.4291 6.864 89.3251 6.632 89.1171 6.504C 88.9091 6.36 88.4851 6.248 87.8451 6.168C 87.6691 6.136 87.5811 5.984 87.5811 5.712C 87.5811 5.664 87.5811 5.6 87.5811 5.52C 87.5811 5.44 87.5971 5.36 87.6291 5.28C 88.0931 5.312 88.5811 5.344 89.0931 5.376C 89.6211 5.392 90.2451 5.4 90.9651 5.4C 91.5251 5.4 92.1091 5.392 92.7171 5.376C 93.3251 5.344 93.8691 5.312 94.3491 5.28C 94.3651 5.36 94.3731 5.44 94.3731 5.52C 94.3891 5.6 94.3971 5.664 94.3971 5.712C 94.3971 5.984 94.3091 6.136 94.1331 6.168C 93.4771 6.248 93.0291 6.36 92.7891 6.504C 92.5651 6.648 92.4531 6.88 92.4531 7.2L 92.4531 14.64C 92.4531 16.304 92.7571 17.568 93.3651 18.432C 93.9891 19.296 95.0531 19.728 96.5571 19.728C 98.0931 19.728 99.1811 19.328 99.8211 18.528C 100.477 17.712 100.805 16.392 100.805 14.568L 100.805 7.2C 100.805 6.88 100.693 6.648 100.469 6.504C 100.245 6.36 99.8211 6.248 99.1971 6.168C 99.0051 6.12 98.9091 5.968 98.9091 5.712C 98.9091 5.664 98.9091 5.6 98.9091 5.52C 98.9251 5.44 98.9411 5.36 98.9571 5.28C 99.4211 5.328 99.8451 5.36 100.229 5.376C 100.629 5.392 101.053 5.4 101.501 5.4C 102.013 5.4 102.469 5.392 102.869 5.376C 103.269 5.36 103.661 5.328 104.045 5.28C 104.061 5.36 104.069 5.44 104.069 5.52C 104.085 5.6 104.093 5.664 104.093 5.712C 104.093 5.968 103.997 6.12 103.805 6.168C 103.213 6.232 102.805 6.344 102.581 6.504C 102.357 6.648 102.245 6.88 102.245 7.2L 102.245 15.072ZM 111.506 13.632C 111.282 13.616 111.154 13.528 111.122 13.368C 111.01 12.712 110.754 12.232 110.354 11.928C 109.954 11.624 109.45 11.472 108.842 11.472C 108.298 11.472 107.882 11.608 107.594 11.88C 107.306 12.152 107.162 12.472 107.162 12.84C 107.162 13.016 107.186 13.176 107.234 13.32C 107.282 13.464 107.378 13.6 107.522 13.728C 107.682 13.856 107.898 13.984 108.17 14.112C 108.442 14.224 108.81 14.352 109.274 14.496C 109.818 14.656 110.298 14.832 110.714 15.024C 111.13 15.2 111.482 15.416 111.77 15.672C 112.058 15.928 112.274 16.24 112.418 16.608C 112.578 16.96 112.658 17.384 112.658 17.88C 112.658 18.344 112.578 18.784 112.418 19.2C 112.274 19.616 112.034 19.984 111.698 20.304C 111.362 20.608 110.938 20.848 110.426 21.024C 109.914 21.2 109.298 21.288 108.578 21.288C 108.066 21.288 107.474 21.232 106.802 21.12C 106.146 21.008 105.546 20.808 105.002 20.52C 104.97 20.104 104.938 19.664 104.906 19.2C 104.89 18.72 104.882 18.248 104.882 17.784L 105.194 17.784C 105.37 17.784 105.522 17.816 105.65 17.88C 105.778 17.928 105.85 18.016 105.866 18.144C 105.93 18.816 106.194 19.336 106.658 19.704C 107.122 20.056 107.762 20.232 108.578 20.232C 109.138 20.232 109.594 20.104 109.946 19.848C 110.298 19.592 110.474 19.256 110.474 18.84C 110.474 18.456 110.314 18.128 109.994 17.856C 109.69 17.584 109.106 17.32 108.242 17.064C 107.074 16.728 106.25 16.288 105.77 15.744C 105.306 15.184 105.074 14.52 105.074 13.752C 105.074 12.744 105.41 11.936 106.082 11.328C 106.77 10.72 107.658 10.416 108.746 10.416C 109.37 10.416 109.97 10.496 110.546 10.656C 111.138 10.8 111.61 10.96 111.962 11.136C 111.978 11.264 111.994 11.44 112.01 11.664C 112.026 11.872 112.042 12.104 112.058 12.36C 112.074 12.6 112.082 12.84 112.082 13.08C 112.098 13.304 112.106 13.496 112.106 13.656L 111.506 13.632Z"/>
</defs>
</svg>
