<svg width="368" height="220" viewBox="0 0 368 220" version="1.1" xmlns="http://www.w3.org/2000/svg" xmlns:xlink="http://www.w3.org/1999/xlink">
<title>Logo</title>
<desc>Created using Figma</desc>
<g id="Canvas" transform="matrix(4 0 0 4 -5736 -216)">
<g id="Logo">
<use xlink:href="#path0_fill" transform="translate(1434 54)" fill="#2AE8D1"/>
</g>
</g>
<defs>
<path id="path0_fill" fill-rule="evenodd" d="M 20 3L 25 3L 25 36C 25 36.6769 25.0072 37.3466 25.0143 38.0055L 25.0143 38.0071C 25.0905 45.1353 25.1532 51 16 51C 8.26086 51 5.66895 45.8529 6.86609 44.1592C 6.91235 44.1103 6.95703 44.0573 7 44C 7.67444 43.1008 8.76929 42.6544 9.8949 42.1954C 11.8988 41.3784 14 40.5217 14 37C 14 33.134 10.866 30 7 30C 3.13403 30 0 33.134 0 37C 0 49 7 55 17 55C 33 55 39 49 39 34L 39 3L 44 3L 44 0L 20 0L 20 3ZM 92 14L 92 0L 48 0L 48 2.92L 52.9819 2.92L 52.9819 51L 48 51L 48 54L 72.9094 54L 72.9094 51L 66.9312 51L 67.1304 29L 74 29C 78 29 80.8768 32 80.8768 37L 83.8695 37L 83.8695 18L 80.8768 18C 81 22.5 78.5 26 74 26L 67.1304 26L 66.9312 2.92L 79.5 2.92C 85 2.92 89.0869 8.5 89.0869 14L 92 14Z"/>
</defs>
</svg>
